<?xml version="1.0" standalone="no"?>
<!DOCTYPE svg PUBLIC "-//W3C//DTD SVG 20010904//EN"
 "http://www.w3.org/TR/2001/REC-SVG-20010904/DTD/svg10.dtd">
<svg version="1.0" xmlns="http://www.w3.org/2000/svg"
 width="626.000000pt" height="626.000000pt" viewBox="0 0 626.000000 626.000000"
 preserveAspectRatio="xMidYMid meet">

<g transform="translate(0.000000,626.000000) scale(0.100000,-0.100000)"
fill="#000000" stroke="none">
<path d="M3670 4267 c-72 -17 -106 -36 -156 -89 -117 -122 -143 -294 -95 -628
20 -141 48 -290 54 -297 2 -1 25 4 52 12 26 8 52 15 57 15 4 0 -7 -23 -27 -51
-45 -66 -63 -129 -72 -248 -5 -84 -9 -98 -30 -114 -28 -23 -30 -60 -3 -87 28
-28 64 -25 89 6 27 34 26 50 -3 78 -32 33 -36 55 -25 158 9 94 35 167 71 205
24 26 35 29 41 11 2 -7 3 -5 1 5 -1 11 7 22 22 29 20 10 24 18 24 59 0 45 -2
47 -38 62 -132 53 -223 260 -193 439 12 73 53 179 77 198 9 8 21 7 42 -4 16
-8 81 -29 143 -47 63 -17 138 -43 167 -57 64 -31 137 -109 153 -162 l12 -38
33 15 c30 15 35 15 59 -1 56 -37 52 -90 -9 -144 -27 -24 -46 -32 -74 -32 -34
0 -42 -5 -70 -45 -29 -42 -32 -54 -35 -129 -1 -62 2 -88 13 -101 8 -10 14 -20
12 -22 -2 -3 0 -8 4 -11 4 -4 4 -1 0 6 -4 7 -1 15 9 18 24 10 80 -50 104 -110
23 -60 38 -132 47 -237 l6 -77 -31 -7 c-91 -20 -161 -154 -161 -309 0 -35 -5
-58 -15 -66 -19 -16 -19 -25 1 -44 12 -12 20 -13 35 -6 20 11 27 50 8 50 -19
0 -4 157 21 223 28 74 62 114 110 128 78 24 138 -10 176 -100 20 -46 38 -241
24 -255 -28 -28 -1 -73 35 -60 16 6 21 54 6 54 -4 0 -11 45 -15 100 -4 54 -13
121 -21 148 -19 64 -76 129 -119 137 l-33 7 -7 91 c-12 159 -46 267 -100 316
-14 14 -26 28 -26 32 0 14 146 -29 228 -67 49 -23 53 -23 48 -6 -26 81 -38
195 -45 442 -8 236 -12 284 -30 340 -53 167 -199 266 -406 275 -54 3 -112 -1
-145 -8z"/>
<path d="M3515 3894 c-21 -22 -14 -27 19 -14 15 5 39 10 52 10 14 0 22 4 19
10 -10 16 -72 12 -90 -6z"/>
<path d="M3810 3885 c0 -6 33 -19 75 -29 29 -7 29 -7 11 13 -17 19 -86 31 -86
16z"/>
<path d="M3561 3827 c-24 -24 -6 -77 25 -77 7 0 16 9 19 20 13 41 -19 82 -44
57z"/>
<path d="M3812 3798 c-17 -17 -15 -58 4 -65 21 -8 46 24 42 52 -4 23 -28 31
-46 13z"/>
<path d="M3627 3530 c11 -12 120 -16 132 -4 3 3 -17 4 -44 3 -28 -1 -61 1 -75
6 -20 6 -23 5 -13 -5z"/>
<path d="M3942 3226 c7 -8 15 -12 17 -11 5 6 -10 25 -20 25 -5 0 -4 -6 3 -14z"/>
<path d="M2813 3053 c9 -2 23 -2 30 0 6 3 -1 5 -18 5 -16 0 -22 -2 -12 -5z"/>
<path d="M2893 3043 c9 -2 25 -2 35 0 9 3 1 5 -18 5 -19 0 -27 -2 -17 -5z"/>
<path d="M2988 3033 c17 -2 47 -2 65 0 17 2 3 4 -33 4 -36 0 -50 -2 -32 -4z"/>
<path d="M3121 3026 c2 -2 38 -6 79 -9 44 -3 65 -2 50 3 -24 8 -137 14 -129 6z"/>
<path d="M3288 3013 c6 -2 18 -2 25 0 6 3 1 5 -13 5 -14 0 -19 -2 -12 -5z"/>
<path d="M3345 3003 c11 -3 23 -10 27 -17 5 -7 8 -5 8 7 0 12 -7 17 -27 16
-22 -1 -23 -2 -8 -6z"/>
<path d="M3380 2930 c0 -16 4 -30 8 -30 5 0 7 14 4 30 -2 17 -6 30 -8 30 -2 0
-4 -13 -4 -30z"/>
<path d="M3396 2825 c10 -46 26 -67 18 -25 -3 19 -10 40 -16 45 -6 6 -7 -1 -2
-20z"/>
<path d="M3851 2784 c0 -11 3 -14 6 -6 3 7 2 16 -1 19 -3 4 -6 -2 -5 -13z"/>
<path d="M3419 2718 c4 -28 6 -29 9 -9 2 13 0 27 -5 32 -6 6 -7 -3 -4 -23z"/>
<path d="M3432 2660 c0 -14 4 -36 8 -50 6 -20 8 -21 8 -5 0 11 -4 34 -8 50 -7
27 -8 27 -8 5z"/>
<path d="M3448 2553 c5 -21 7 -23 10 -9 2 10 0 22 -6 28 -6 6 -7 0 -4 -19z"/>
<path d="M2970 2560 c-9 -6 -10 -10 -3 -10 6 0 15 5 18 10 8 12 4 12 -15 0z"/>
<path d="M3461 2480 c0 -8 4 -22 9 -30 12 -18 12 -2 0 25 -6 13 -9 15 -9 5z"/>
<path d="M3481 2384 c0 -11 3 -14 6 -6 3 7 2 16 -1 19 -3 4 -6 -2 -5 -13z"/>
<path d="M3492 2330 c0 -14 2 -19 5 -12 2 6 2 18 0 25 -3 6 -5 1 -5 -13z"/>
<path d="M3500 2262 c0 -23 4 -42 9 -42 6 0 7 17 4 38 -8 51 -13 53 -13 4z"/>
<path d="M4055 1780 c-61 -25 -94 -98 -76 -167 6 -23 18 -49 26 -57 8 -8 15
-18 15 -22 0 -15 51 -53 94 -69 84 -32 159 2 185 83 9 30 9 46 -2 82 -8 25
-19 44 -25 43 -6 -2 -9 3 -6 11 3 7 -3 19 -13 27 -17 13 -17 13 -3 -6 14 -18
14 -19 -2 -7 -9 8 -15 19 -12 25 6 16 -52 51 -68 41 -6 -4 -8 -3 -5 3 12 19
-71 29 -108 13z m128 -89 c5 -1 6 -5 3 -10 -10 -15 25 -22 43 -9 13 10 14 10
4 -2 -7 -8 -13 -18 -13 -23 0 -4 6 -5 13 -1 6 4 9 4 5 -1 -4 -4 0 -21 8 -37
19 -37 13 -54 -20 -60 -14 -3 -23 -2 -21 3 3 4 -4 11 -16 14 -18 6 -20 12 -15
39 4 19 3 26 -3 18 -7 -11 -9 -11 -14 1 -3 8 -16 15 -30 15 -20 0 -23 -4 -19
-25 4 -23 2 -24 -39 -21 -37 2 -45 7 -47 26 -2 12 7 34 19 50 21 24 29 27 79
25 30 -1 59 -2 63 -2z"/>
</g>
</svg>
