<?xml version="1.0" standalone="no"?>
<!DOCTYPE svg PUBLIC "-//W3C//DTD SVG 20010904//EN"
 "http://www.w3.org/TR/2001/REC-SVG-20010904/DTD/svg10.dtd">
<svg version="1.0" xmlns="http://www.w3.org/2000/svg"
 width="512.000000pt" height="512.000000pt" viewBox="0 0 512.000000 512.000000"
 preserveAspectRatio="xMidYMid meet">
<metadata>
Created by potrace 1.16, written by Peter Selinger 2001-2019
</metadata>
<g transform="translate(0.000000,512.000000) scale(0.100000,-0.100000)"
fill="#000000" stroke="none">
<path d="M1350 5098 c-70 -48 -89 -99 -90 -240 l0 -88 -99 0 c-110 0 -145 -14
-188 -79 l-23 -34 2 -640 3 -640 26 -20 c23 -17 32 -18 61 -8 19 6 40 22 47
34 8 16 12 190 14 627 l2 605 1455 0 1455 0 3 -992 2 -993 -963 0 c-839 0
-965 2 -984 15 -12 8 -76 102 -144 207 -137 217 -148 231 -204 261 -39 22 -48
22 -635 25 -657 3 -643 4 -709 -60 -72 -70 -66 64 -66 -1508 l0 -1415 27 -46
c15 -25 46 -59 69 -75 l42 -29 2107 0 2107 0 42 29 c23 16 54 50 69 75 l27 46
3 1145 c2 1026 1 1149 -13 1187 -37 97 -105 142 -225 150 l-80 6 0 1182 0
1182 -23 34 c-12 18 -38 44 -56 56 l-34 23 -1497 0 -1497 0 -33 -22z m2988
-1300 l2 -1168 -85 0 -85 0 0 999 c0 682 -3 1009 -11 1028 -14 38 -57 83 -96
99 -27 12 -252 14 -1338 14 l-1305 0 0 93 c0 52 3 97 7 100 3 4 659 6 1457 5
l1451 -3 3 -1167z m-2686 -819 c14 -6 73 -88 148 -206 69 -108 140 -211 158
-229 69 -68 -9 -64 1389 -64 1250 0 1263 0 1283 -20 20 -20 20 -33 20 -1144
l0 -1125 -27 -20 c-25 -21 -35 -21 -292 -19 l-266 3 -65 183 c-70 197 -95 238
-163 275 -40 21 -53 22 -275 22 -234 0 -234 0 -253 -24 -24 -30 -24 -72 0
-102 19 -24 22 -24 239 -27 198 -3 222 -5 236 -21 13 -15 116 -287 116 -307 0
-2 -603 -4 -1340 -4 -737 0 -1340 3 -1340 8 0 23 100 286 115 302 18 20 35 20
846 20 548 0 837 4 855 10 31 12 53 37 54 62 0 31 -22 66 -49 78 -19 7 -276
10 -871 8 l-845 -3 -42 -22 c-68 -37 -93 -78 -163 -275 l-65 -183 -266 -3
c-257 -2 -267 -2 -292 19 l-27 20 0 1379 0 1379 26 20 c26 21 35 21 580 21
368 0 561 -4 576 -11z"/>
<path d="M715 2820 c-11 -4 -31 -20 -45 -35 -24 -26 -25 -30 -25 -181 l0 -154
33 -32 32 -33 477 -3 c347 -2 485 1 506 9 32 13 57 55 57 96 0 43 -147 300
-186 323 -30 19 -52 20 -430 19 -220 0 -408 -4 -419 -9z m808 -209 c20 -38 37
-72 37 -75 0 -3 -173 -6 -385 -6 l-385 0 0 75 0 75 348 0 347 0 38 -69z"/>
<path d="M4063 2330 c-45 -18 -57 -86 -23 -120 18 -18 33 -20 165 -20 l145 0
0 -135 c0 -100 4 -144 15 -164 35 -68 125 -48 140 32 4 18 5 108 3 200 -4 226
12 211 -236 214 -103 1 -197 -2 -209 -7z"/>
<path d="M1545 4328 c-37 -29 -55 -76 -55 -143 l0 -55 -62 0 c-74 0 -104 -13
-135 -59 -21 -31 -23 -46 -23 -153 0 -177 27 -215 156 -226 l64 -5 0 -56 c0
-69 24 -118 71 -143 44 -23 241 -26 294 -4 50 21 75 68 75 142 l0 61 69 6
c130 11 151 42 151 222 0 100 -4 133 -16 155 -26 43 -64 60 -138 60 l-66 0 0
61 c0 72 -19 118 -59 142 -24 14 -55 17 -164 17 -123 0 -137 -2 -162 -22z"/>
<path d="M2516 4209 c-33 -26 -36 -79 -6 -109 19 -19 33 -20 203 -20 179 0
184 1 205 23 29 31 28 72 -3 102 -24 25 -27 25 -198 25 -161 0 -176 -2 -201
-21z"/>
<path d="M2516 3909 c-33 -26 -36 -79 -6 -109 20 -20 33 -20 625 -20 592 0
605 0 625 20 30 30 27 83 -6 109 -26 21 -35 21 -619 21 -584 0 -593 0 -619
-21z"/>
<path d="M2516 3609 c-34 -27 -36 -79 -4 -109 21 -20 32 -20 625 -20 590 0
603 0 623 20 30 30 27 83 -6 109 -26 21 -35 21 -619 21 -584 0 -593 0 -619
-21z"/>
<path d="M2512 3300 c-32 -30 -30 -82 4 -109 26 -21 35 -21 619 -21 584 0 593
0 619 21 33 26 36 79 6 109 -20 20 -33 20 -623 20 -593 0 -604 0 -625 -20z"/>
<path d="M2510 3000 c-30 -30 -27 -83 6 -109 26 -21 35 -21 619 -21 584 0 593
0 619 21 33 26 36 79 6 109 -20 20 -33 20 -625 20 -592 0 -605 0 -625 -20z"/>
</g>
</svg>
