<?xml version="1.0" standalone="no"?>
<!DOCTYPE svg PUBLIC "-//W3C//DTD SVG 20010904//EN"
 "http://www.w3.org/TR/2001/REC-SVG-20010904/DTD/svg10.dtd">
<svg version="1.0" xmlns="http://www.w3.org/2000/svg"
 width="512.000000pt" height="512.000000pt" viewBox="0 0 512.000000 512.000000"
 preserveAspectRatio="xMidYMid meet">
<metadata>
Created by potrace 1.16, written by Peter Selinger 2001-2019
</metadata>
<g transform="translate(0.000000,512.000000) scale(0.100000,-0.100000)"
fill="#000000" stroke="none">
<path d="M2432 5094 c-29 -14 -67 -43 -85 -65 l-34 -39 -371 0 -371 0 -26 -23
c-20 -17 -28 -35 -32 -70 l-6 -47 -108 0 c-120 0 -154 -10 -167 -50 -13 -36 9
-87 43 -100 15 -6 76 -10 136 -10 l109 0 0 -60 0 -60 -249 0 c-250 0 -250 0
-278 -24 l-28 -24 0 -2101 0 -2100 23 -23 23 -23 847 0 c907 0 918 1 1117 52
113 29 213 66 315 118 93 47 112 85 69 139 -28 36 -64 34 -149 -9 -58 -29
-193 -85 -206 -85 -2 0 17 28 42 62 106 142 134 241 141 494 l6 192 191 5
c254 6 338 29 482 133 l73 53 -29 -80 c-63 -173 -165 -333 -316 -498 -75 -81
-85 -96 -79 -120 10 -41 34 -61 74 -61 32 0 45 9 128 95 197 204 339 471 403
760 37 167 41 363 38 1708 l-3 1289 -28 24 c-28 24 -28 24 -278 24 l-249 0 0
60 0 60 338 -2 337 -3 5 -1183 5 -1184 24 -19 c30 -25 76 -24 101 1 20 20 20
33 20 1221 0 1193 0 1202 -21 1238 -11 20 -36 48 -56 61 l-36 25 -353 3 -352
3 -5 47 c-4 34 -12 53 -32 69 l-26 23 -371 0 -371 0 -34 39 c-52 61 -121 91
-213 91 -62 0 -86 -5 -128 -26z m183 -138 c22 -10 45 -31 62 -60 15 -24 38
-49 50 -55 16 -7 147 -11 373 -11 l350 0 0 -334 c0 -295 -2 -335 -16 -340 -9
-3 -402 -6 -874 -6 -472 0 -865 3 -874 6 -14 5 -16 45 -16 340 l0 334 350 0
c226 0 357 4 373 11 12 6 35 31 50 55 41 68 102 89 172 60z m-1093 -689 c3
-151 4 -154 31 -190 59 -77 -16 -72 1007 -72 1023 0 948 -5 1007 72 27 36 28
39 31 190 l3 153 200 0 199 0 -2 -1302 -3 -1303 -23 -60 c-47 -126 -149 -243
-262 -300 -121 -62 -88 -59 -877 -63 l-722 -3 -21 -26 c-25 -32 -26 -64 -1
-94 l19 -24 467 -3 467 -3 -5 -182 c-3 -132 -9 -197 -22 -237 -58 -186 -202
-327 -385 -375 -46 -12 -176 -15 -782 -15 l-728 0 0 1995 0 1995 199 0 200 0
3 -153z"/>
<path d="M1832 4423 c-7 -3 -19 -18 -28 -35 -13 -25 -13 -35 -3 -59 6 -17 20
-34 30 -39 20 -11 1426 -14 1454 -4 8 4 23 20 31 36 13 25 13 35 3 59 -6 17
-20 34 -30 39 -18 10 -1432 13 -1457 3z"/>
<path d="M2445 3869 c-244 -36 -457 -194 -573 -425 -108 -215 -98 -503 25
-714 50 -85 169 -210 250 -260 144 -91 278 -126 457 -118 187 9 342 76 480
207 161 154 239 338 238 561 -1 129 -25 230 -82 339 -154 297 -466 458 -795
410z m269 -165 c159 -41 319 -170 389 -314 55 -112 70 -186 65 -305 -13 -278
-192 -496 -464 -565 -98 -25 -190 -25 -286 -1 -283 73 -467 307 -468 596 0
271 189 517 455 590 70 19 234 18 309 -1z"/>
<path d="M2369 3581 c-22 -18 -24 -27 -27 -135 l-4 -116 -109 0 c-103 0 -111
-1 -134 -25 -25 -24 -25 -27 -25 -193 0 -217 -4 -212 157 -212 l111 0 4 -116
c3 -113 4 -116 31 -140 27 -23 34 -24 187 -24 153 0 160 1 187 24 27 24 28 27
31 140 l4 116 112 0 c160 0 156 -5 156 214 0 164 0 167 -25 191 -23 24 -31 25
-134 25 l-109 0 -4 116 c-4 159 3 154 -218 154 -150 0 -170 -2 -191 -19z m251
-240 c0 -94 3 -112 20 -134 20 -25 25 -26 138 -29 l117 -3 3 -62 3 -63 -110 0
c-60 0 -117 -3 -126 -6 -33 -13 -45 -59 -45 -169 l0 -105 -60 0 -60 0 0 105
c0 110 -12 156 -45 169 -9 3 -66 6 -126 6 l-110 0 3 63 3 62 117 3 c113 3 118
4 138 29 17 22 20 40 20 134 l0 109 60 0 60 0 0 -109z"/>
<path d="M1401 2054 c-20 -25 -21 -39 -21 -256 l0 -229 25 -24 24 -25 236 0
c222 0 236 1 255 20 19 19 20 33 20 260 0 227 -1 241 -20 260 -19 19 -33 20
-259 20 l-240 0 -20 -26z m389 -254 l0 -130 -130 0 -130 0 0 130 0 130 130 0
130 0 0 -130z"/>
<path d="M2091 2054 c-26 -33 -27 -65 -2 -95 l19 -24 797 0 797 0 19 24 c25
30 24 62 -2 95 l-20 26 -794 0 -794 0 -20 -26z"/>
<path d="M2115 1798 c-49 -26 -58 -69 -24 -112 l20 -26 174 0 174 0 20 26 c28
36 26 60 -8 95 l-29 29 -154 0 c-91 0 -161 -5 -173 -12z"/>
<path d="M1401 1364 c-20 -25 -21 -39 -21 -254 0 -215 1 -229 21 -254 l20 -26
240 0 c226 0 240 1 259 20 19 19 20 33 20 260 0 227 -1 241 -20 260 -19 19
-33 20 -259 20 l-240 0 -20 -26z m389 -254 l0 -130 -130 0 -130 0 0 130 0 130
130 0 130 0 0 -130z"/>
<path d="M2115 1109 c-49 -28 -58 -70 -24 -113 l20 -26 310 0 c296 0 310 1
329 20 27 27 26 81 -1 106 -20 18 -42 19 -318 21 -204 2 -302 -1 -316 -8z"/>
<path d="M805 4839 c-38 -12 -68 -37 -94 -80 l-21 -34 0 -2306 0 -2306 23 -34
c12 -18 38 -44 56 -56 l34 -23 1757 0 1757 0 34 23 c18 12 44 38 56 56 l23 34
-2 970 -3 970 -26 20 c-23 17 -32 18 -61 8 -19 -6 -40 -22 -47 -34 -8 -16 -12
-268 -14 -957 l-2 -935 -1715 0 -1715 0 0 2265 0 2265 50 3 c100 5 135 27 135
86 0 55 -36 76 -124 75 -39 0 -84 -5 -101 -10z"/>
</g>
</svg>
