<?xml version="1.0" standalone="no"?>
<!DOCTYPE svg PUBLIC "-//W3C//DTD SVG 20010904//EN"
 "http://www.w3.org/TR/2001/REC-SVG-20010904/DTD/svg10.dtd">
<svg version="1.0" xmlns="http://www.w3.org/2000/svg"
 width="512.000000pt" height="512.000000pt" viewBox="0 0 512.000000 512.000000"
 preserveAspectRatio="xMidYMid meet">

<g transform="translate(0.000000,512.000000) scale(0.100000,-0.100000)"
fill="#000000" stroke="none">
<path d="M2445 4946 c-55 -25 -110 -81 -131 -132 -18 -43 -18 -145 0 -188 20
-49 79 -110 126 -131 l40 -18 0 -194 c0 -106 -1 -193 -3 -193 -2 0 -41 13 -87
30 -103 36 -184 39 -248 10 -24 -11 -83 -58 -132 -105 -99 -95 -126 -110 -220
-119 -99 -11 -171 -26 -211 -47 -35 -17 -92 -73 -102 -101 -3 -8 -77 59 -201
182 l-197 196 22 49 c32 73 31 172 -3 246 -49 106 -143 171 -260 177 -299 18
-444 -338 -219 -540 90 -82 203 -99 317 -49 l48 22 213 -213 c120 -119 213
-221 213 -231 0 -10 -9 -36 -20 -58 -16 -31 -44 -55 -118 -104 -110 -72 -164
-123 -187 -177 -16 -39 -18 -128 -6 -248 9 -89 -1 -125 -58 -220 -28 -45 -55
-97 -61 -116 l-12 -34 -152 0 -153 0 -18 40 c-21 47 -82 106 -131 126 -43 18
-145 18 -188 0 -151 -63 -203 -257 -103 -388 114 -149 343 -123 425 49 l16 33
152 0 152 0 17 -42 c9 -24 39 -79 66 -123 55 -90 56 -96 44 -267 -13 -192 14
-242 187 -354 95 -62 131 -99 145 -153 5 -20 -14 -42 -127 -156 l-133 -133
-33 14 c-47 20 -141 17 -189 -5 -47 -21 -99 -70 -122 -114 -9 -18 -18 -62 -21
-99 -4 -59 -1 -75 22 -122 32 -64 81 -109 145 -131 198 -67 386 123 316 320
l-14 40 107 108 c58 59 109 107 112 107 3 0 17 -17 32 -38 39 -55 110 -90 210
-103 188 -25 179 -21 287 -123 108 -102 151 -127 228 -134 47 -4 144 18 238
54 13 5 15 -20 15 -189 l0 -195 -23 -6 c-37 -9 -118 -86 -138 -131 -43 -93
-12 -228 67 -294 162 -133 411 -20 414 188 1 96 -56 188 -139 226 l-41 18 0
195 c0 157 3 193 13 189 74 -28 187 -57 225 -57 73 0 139 37 244 138 104 99
97 96 285 120 100 13 148 37 202 98 l41 47 50 -47 c56 -52 80 -57 115 -21 39
38 32 60 -46 140 l-70 73 16 38 c22 54 47 78 145 141 181 117 204 167 180 388
l-12 116 30 57 c16 31 49 94 73 140 l42 82 152 0 152 0 18 -41 c23 -51 92
-112 143 -127 119 -36 238 12 295 117 94 173 -23 371 -218 371 -37 0 -76 -8
-100 -19 -45 -20 -122 -101 -131 -138 -6 -23 -7 -23 -159 -23 l-153 0 -36 73
c-20 39 -52 102 -72 139 l-37 67 13 120 c24 219 -2 273 -190 394 -97 62 -112
76 -134 132 l-17 39 269 269 269 269 62 -22 c140 -52 291 11 358 148 76 155 0
341 -164 402 -111 42 -215 18 -303 -68 -46 -45 -62 -69 -74 -111 -21 -71 -20
-123 4 -191 l19 -55 -247 -248 c-213 -213 -248 -245 -257 -230 -38 67 -136
123 -216 123 -57 0 -89 -42 -70 -92 9 -24 37 -40 95 -53 47 -10 79 -55 115
-158 53 -155 86 -195 229 -282 35 -21 77 -54 94 -74 l31 -35 -9 -90 c-13 -132
-11 -226 6 -266 8 -19 40 -78 73 -130 78 -126 77 -152 -11 -294 -79 -127 -88
-171 -72 -319 19 -170 13 -181 -130 -272 -129 -81 -158 -118 -214 -273 -50
-140 -65 -154 -181 -167 -192 -21 -227 -36 -340 -145 -134 -129 -131 -128
-292 -73 -146 49 -209 49 -352 -1 -156 -54 -152 -55 -288 75 -108 102 -149
121 -298 139 -163 19 -175 29 -236 203 -42 118 -75 160 -189 234 -52 35 -108
77 -124 94 l-29 32 9 116 c14 205 6 241 -85 380 -22 36 -46 82 -53 103 -10 34
-8 43 19 95 16 32 48 90 71 129 54 89 62 141 49 293 -14 161 -13 163 129 257
134 88 159 120 214 270 39 109 59 140 97 155 12 4 74 15 137 23 147 19 186 39
309 155 115 108 119 109 277 56 75 -25 121 -35 167 -35 45 0 95 10 172 35 159
51 165 50 261 -42 65 -62 87 -76 112 -76 37 0 68 32 68 71 0 34 -140 174 -202
202 -73 33 -188 21 -320 -35 -17 -7 -18 6 -18 187 l0 194 33 16 c55 26 99 70
123 123 98 208 -122 429 -331 331z m183 -149 c16 -16 26 -40 29 -71 5 -42 3
-48 -30 -81 -29 -29 -42 -35 -78 -35 -68 1 -109 44 -109 113 0 38 30 83 64 98
35 15 97 3 124 -24z m1812 -265 c41 -20 75 -68 84 -118 9 -43 -24 -117 -65
-147 -66 -48 -183 -20 -221 53 -40 76 -11 172 64 209 52 26 92 27 138 3z
m-3541 -82 c95 -48 119 -176 48 -257 -57 -65 -127 -79 -204 -42 -63 30 -97 92
-91 164 10 123 136 192 247 135z m-446 -1781 c38 -19 57 -51 57 -97 0 -37 -6
-50 -35 -79 -33 -33 -39 -35 -81 -30 -68 7 -99 42 -99 108 0 45 4 54 33 80 35
31 85 38 125 18z m4309 -9 c40 -31 53 -73 39 -121 -29 -98 -162 -106 -206 -13
-35 74 17 154 100 154 27 0 51 -7 67 -20z m-3670 -1512 c26 -13 48 -61 48
-103 0 -42 -40 -90 -84 -101 -64 -16 -136 38 -136 101 0 62 28 99 90 118 17 6
57 -2 82 -15z m1504 -624 c91 -43 81 -176 -15 -205 -74 -22 -141 27 -141 105
0 49 21 83 64 102 41 17 51 17 92 -2z"/>
<path d="M1989 3557 c-84 -32 -151 -115 -165 -204 -15 -100 44 -210 138 -257
144 -72 321 9 358 164 16 67 6 126 -33 191 -45 75 -108 113 -196 116 -38 2
-81 -3 -102 -10z m147 -146 c93 -57 49 -201 -61 -201 -52 0 -89 27 -105 75
-23 71 30 145 105 145 17 0 44 -9 61 -19z"/>
<path d="M3194 2959 c-62 -18 -127 -71 -157 -129 -25 -48 -28 -63 -25 -126 4
-93 40 -155 117 -201 65 -39 124 -49 191 -33 155 37 236 214 164 358 -54 108
-177 164 -290 131z m110 -143 c45 -19 66 -52 66 -102 0 -77 -71 -128 -146
-104 -91 30 -98 167 -11 205 41 18 50 18 91 1z"/>
<path d="M1980 2364 c-68 -18 -150 -73 -190 -127 -52 -70 -72 -141 -68 -232 4
-99 35 -170 101 -236 89 -89 213 -125 333 -96 167 41 274 176 274 347 0 168
-104 303 -265 345 -72 18 -113 18 -185 -1z m203 -156 c22 -13 55 -43 72 -66
27 -40 30 -51 30 -121 0 -68 -3 -83 -27 -119 -86 -129 -280 -129 -365 0 -38
57 -44 149 -13 213 54 111 192 154 303 93z"/>
<path d="M3905 1215 c-39 -38 -32 -60 45 -139 l70 -72 -20 -52 c-58 -153 2
-309 150 -388 55 -29 200 -27 260 4 66 35 115 86 145 155 24 53 27 69 23 136
-7 119 -59 200 -160 250 -76 38 -168 42 -250 11 l-52 -20 -72 70 c-79 77 -101
84 -139 45z m455 -230 c74 -38 104 -157 58 -225 -51 -75 -136 -101 -214 -64
-64 31 -102 108 -88 181 8 45 66 110 108 123 38 11 98 5 136 -15z"/>
</g>
</svg>
