<?xml version="1.0" standalone="no"?>
<!DOCTYPE svg PUBLIC "-//W3C//DTD SVG 20010904//EN"
 "http://www.w3.org/TR/2001/REC-SVG-20010904/DTD/svg10.dtd">
<svg version="1.0" xmlns="http://www.w3.org/2000/svg"
 width="234.000000pt" height="215.000000pt" viewBox="0 0 234.000000 215.000000"
 preserveAspectRatio="xMidYMid meet">
<metadata>
Created by potrace 1.16, written by Peter Selinger 2001-2019
</metadata>
<g transform="translate(0.000000,215.000000) scale(0.100000,-0.100000)"
fill="#000000" stroke="none">
<path d="M667 2081 c-59 -32 -113 -63 -119 -69 -9 -9 -4 -29 22 -83 36 -73 41
-76 90 -55 12 5 24 -11 49 -61 l33 -67 -22 -16 c-19 -15 -21 -20 -10 -39 6
-13 10 -24 8 -26 -2 -2 -26 -12 -55 -23 -170 -64 -328 -204 -402 -352 -54
-111 -75 -208 -68 -325 7 -113 27 -187 77 -293 l40 -84 -30 -44 c-48 -69 -78
-142 -91 -220 -11 -70 -14 -76 -101 -183 -49 -60 -87 -115 -83 -121 8 -12
2157 -14 2223 -1 81 16 125 87 103 167 -6 23 -90 162 -186 310 l-175 269 0
108 c0 108 0 109 30 137 40 38 42 95 4 134 l-27 26 -199 0 c-118 0 -207 -4
-219 -10 -29 -16 -51 -67 -44 -100 4 -16 20 -41 36 -54 29 -24 29 -26 29 -126
0 -86 -3 -107 -22 -141 l-23 -39 -285 3 -285 3 -70 28 c-55 22 -92 30 -169 34
l-98 5 -26 56 c-20 42 -27 77 -30 143 -4 79 -2 93 22 142 46 95 155 170 263
182 l48 6 43 -86 c23 -48 42 -90 42 -95 0 -6 -9 -13 -20 -16 -11 -3 -20 -13
-20 -20 0 -27 64 -145 78 -145 22 0 372 182 372 193 0 5 -17 41 -37 79 -35 63
-40 68 -68 66 -29 -3 -31 0 -176 277 -81 153 -152 281 -157 283 -6 2 -20 -2
-31 -8 -19 -9 -24 -4 -57 61 l-36 72 23 18 24 18 -35 70 c-26 55 -38 71 -54
70 -12 -1 -69 -27 -129 -58z m142 -29 l19 -38 -98 -52 -99 -53 -20 39 -20 39
97 51 c53 28 98 52 99 52 2 0 11 -17 22 -38z m199 -384 c33 -62 96 -183 141
-268 l81 -156 -98 -51 -98 -52 -137 276 c-76 151 -137 276 -135 278 10 9 165
84 175 85 6 0 38 -51 71 -112z m-203 -178 c36 -72 63 -135 61 -139 -3 -5 -23
-11 -43 -15 -59 -9 -154 -59 -201 -105 -24 -24 -56 -68 -70 -99 -23 -49 -27
-70 -27 -147 1 -74 6 -102 28 -156 31 -76 32 -79 12 -79 -26 0 -119 -46 -168
-83 -26 -21 -50 -37 -53 -37 -12 0 -75 152 -90 217 -22 96 -15 267 14 347 64
174 198 313 380 392 42 19 80 34 84 34 5 0 37 -59 73 -130z m516 -301 c25 -49
39 -36 -143 -129 l-137 -70 -21 39 -20 40 148 79 c81 44 148 80 149 81 2 0 12
-18 24 -40z m657 -71 c20 -20 14 -65 -10 -82 -18 -13 -56 -16 -200 -16 -165 0
-180 2 -198 20 -24 24 -25 38 -4 68 15 21 20 22 208 22 136 0 195 -3 204 -12z
m-48 -252 l0 -114 68 -104 c172 -262 283 -438 293 -467 14 -39 6 -74 -23 -101
-20 -18 -35 -20 -164 -20 -78 0 -149 3 -158 6 -19 7 -21 24 -3 24 27 0 59 47
59 86 0 30 -7 44 -31 66 -47 42 -106 33 -139 -21 l-18 -30 -39 39 -39 40 -214
0 c-117 0 -212 4 -210 8 2 4 28 47 58 95 l55 87 117 0 c139 0 131 -9 126 140
l-3 95 -37 3 c-42 4 -44 6 -23 42 10 17 14 58 15 133 l0 107 155 0 155 0 0
-114z m-1058 -174 c144 -52 259 -175 302 -321 30 -101 81 -91 -464 -91 l-480
0 6 33 c25 144 127 287 249 350 120 61 268 73 387 29z m748 -107 l0 -75 -224
0 -224 0 -27 38 c-16 20 -44 54 -64 75 l-35 37 287 0 287 0 0 -75z m-302 -220
c-33 -52 -64 -95 -69 -95 -5 0 -9 10 -9 23 0 22 -22 115 -35 150 -7 15 1 17
84 17 l90 0 -61 -95z m473 -225 l84 -79 -893 -1 c-863 0 -893 1 -880 18 7 10
36 46 63 80 l50 61 746 0 746 1 84 -80z"/>
<path d="M1887 482 c-42 -46 -5 -126 55 -120 61 6 86 79 42 122 -21 22 -77 20
-97 -2z"/>
<path d="M1695 1338 c-28 -16 -35 -28 -35 -64 0 -39 27 -64 68 -64 66 0 94 69
47 115 -26 27 -49 31 -80 13z"/>
</g>
</svg>
