<?xml version="1.0" standalone="no"?>
<!DOCTYPE svg PUBLIC "-//W3C//DTD SVG 20010904//EN"
 "http://www.w3.org/TR/2001/REC-SVG-20010904/DTD/svg10.dtd">
<svg version="1.0" xmlns="http://www.w3.org/2000/svg"
 width="225.000000pt" height="225.000000pt" viewBox="0 0 225.000000 225.000000"
 preserveAspectRatio="xMidYMid meet">

<g transform="translate(0.000000,225.000000) scale(0.100000,-0.100000)"
fill="#000000" stroke="none">
<path d="M695 2204 c-11 -3 -24 -10 -29 -14 -14 -14 49 -103 115 -164 51 -48
56 -56 39 -61 -34 -11 -22 -42 35 -92 l55 -48 0 -71 c0 -65 -3 -77 -34 -123
-19 -28 -40 -67 -46 -87 -11 -33 -10 -39 5 -50 9 -7 35 -16 57 -19 21 -4 42
-14 45 -21 3 -8 11 -54 17 -102 l12 -87 122 0 122 0 0 -80 0 -80 -46 -29
c-146 -92 -344 -267 -367 -324 -58 -146 -119 -707 -77 -707 10 0 16 12 18 35
19 243 58 514 87 617 8 28 28 66 43 84 33 40 246 211 322 259 30 19 58 39 63
45 4 5 6 57 5 115 l-3 105 -125 0 -125 0 -7 45 c-3 25 -7 60 -7 77 l-1 33 48
-6 c104 -12 200 -36 252 -62 83 -41 88 -57 96 -303 l7 -205 -29 -27 -29 -27
-7 26 c-21 80 -93 95 -197 43 -139 -69 -229 -260 -246 -519 -6 -87 -4 -99 17
-140 20 -39 34 -51 109 -89 70 -35 99 -44 156 -48 67 -5 71 -4 104 25 l34 30
7 154 c3 84 7 187 7 228 l2 75 74 63 c85 72 65 74 173 -13 l49 -40 8 -225 c8
-246 13 -268 67 -291 46 -19 136 -5 219 33 126 59 155 107 144 241 -15 169
-54 302 -119 401 -101 150 -295 198 -322 78 -3 -15 -7 -31 -8 -35 0 -4 -20 7
-44 25 l-42 32 0 219 c0 140 -4 234 -12 259 -15 52 -80 123 -137 152 -107 54
-353 115 -378 94 -23 -19 3 -34 79 -48 91 -15 218 -55 279 -86 55 -27 105 -84
119 -134 6 -19 10 -135 10 -257 l0 -222 68 -55 c54 -44 67 -60 69 -85 1 -17 0
-31 -3 -31 -4 0 -34 23 -69 50 -35 28 -68 50 -75 50 -7 0 -41 -25 -75 -55 -35
-30 -66 -55 -69 -55 -3 0 -6 17 -6 38 0 32 7 43 55 85 l55 48 0 211 c0 136 -4
225 -12 251 -17 57 -72 110 -141 136 -64 23 -208 51 -269 51 -32 0 -126 17
-136 25 -7 6 19 55 51 96 l34 46 -5 95 -5 96 -45 32 c-47 33 -47 46 3 52 50 5
40 30 -26 68 -56 32 -149 120 -149 141 0 14 229 10 357 -6 243 -32 458 -100
482 -152 7 -16 15 -155 22 -382 5 -196 15 -373 20 -394 13 -48 57 -98 133
-150 97 -65 217 -157 272 -209 37 -35 55 -61 63 -91 28 -106 67 -420 75 -606
5 -104 13 -130 37 -116 35 22 -38 677 -87 781 -20 41 -102 113 -254 220 -217
154 -209 139 -210 389 -1 290 -16 549 -35 584 -45 88 -390 175 -735 185 -85 3
-164 3 -175 0z m535 -1473 c7 -15 6 -23 -6 -35 -18 -18 -17 -18 -38 -10 -16 6
-22 45 -9 57 13 14 43 7 53 -12z m538 -7 c2 -11 -3 -26 -11 -33 -29 -24 -70
17 -46 46 17 20 53 12 57 -13z m-694 -116 c8 -14 7 -21 -6 -34 -30 -30 -75 9
-48 42 16 18 39 15 54 -8z m850 0 c15 -25 -17 -57 -42 -42 -22 14 -28 44 -10
55 18 12 39 7 52 -13z m-700 -94 c10 -26 -5 -45 -33 -42 -31 4 -41 36 -16 54
19 14 41 9 49 -12z m554 -17 c-4 -32 -54 -36 -63 -6 -5 16 -2 26 10 35 25 18
57 0 53 -29z m-730 -90 c-2 -17 -10 -22 -33 -22 -35 0 -47 31 -20 51 25 18 57
0 53 -29z m908 11 c8 -26 -7 -41 -37 -36 -29 4 -38 37 -14 54 21 16 42 8 51
-18z m-772 -120 c8 -14 7 -21 -6 -34 -30 -30 -75 9 -48 42 16 18 39 15 54 -8z
m630 0 c8 -14 7 -21 -6 -34 -30 -30 -75 9 -48 42 16 18 39 15 54 -8z"/>
<path d="M436 2001 c-25 -28 -17 -64 18 -76 24 -8 31 -6 47 14 24 29 24 36 -1
61 -25 25 -42 25 -64 1z"/>
<path d="M285 1803 c-62 -16 -110 -83 -101 -142 11 -76 18 -107 29 -129 27
-55 142 -79 213 -46 69 33 106 114 85 184 -29 97 -130 157 -226 133z m128 -65
c75 -53 76 -159 1 -209 -62 -41 -168 -6 -170 56 -1 17 -6 43 -12 58 -13 30 3
87 29 102 42 26 109 23 152 -7z"/>
<path d="M637 1593 c-22 -21 0 -63 33 -63 18 0 32 40 19 56 -12 15 -41 19 -52
7z"/>
<path d="M54 1475 c-4 -9 -2 -21 4 -27 16 -16 47 -5 47 17 0 26 -42 34 -51 10z"/>
<path d="M470 1375 c-25 -30 10 -61 38 -33 17 17 15 26 -7 37 -14 8 -22 7 -31
-4z"/>
<path d="M223 1249 c-71 -20 -110 -109 -77 -175 27 -53 64 -77 117 -77 77 2
127 52 127 128 0 88 -81 148 -167 124z m101 -70 c14 -17 26 -41 26 -54 0 -13
-12 -37 -26 -54 -51 -61 -144 -26 -144 54 0 80 93 115 144 54z"/>
<path d="M630 1213 c-49 -63 22 -133 88 -87 45 31 15 114 -42 114 -15 0 -33
-11 -46 -27z"/>
</g>
</svg>
