<?xml version="1.0" standalone="no"?>
<!DOCTYPE svg PUBLIC "-//W3C//DTD SVG 20010904//EN"
 "http://www.w3.org/TR/2001/REC-SVG-20010904/DTD/svg10.dtd">
<svg version="1.0" xmlns="http://www.w3.org/2000/svg"
 width="1820.000000pt" height="1214.000000pt" viewBox="0 0 1820.000000 1214.000000"
 preserveAspectRatio="xMidYMid meet">

<g transform="translate(0.000000,1214.000000) scale(0.100000,-0.100000)"
fill="#000000" stroke="none">
<path d="M8401 10961 c-251 -64 -458 -268 -520 -513 l-19 -73 -281 -5 c-275
-5 -281 -5 -303 -28 -22 -22 -23 -30 -28 -240 l-5 -217 -986 -5 c-1085 -6
-1008 -1 -1036 -67 -20 -49 -19 -2028 1 -2077 19 -45 52 -66 102 -66 34 0 49
6 73 31 l31 31 0 624 0 624 650 0 c714 0 693 -2 725 60 19 36 19 63 1 99 -31
59 7 56 -710 61 l-661 5 -3 228 -2 227 910 0 910 0 0 -305 0 -305 29 -32 29
-33 1251 -3 c1376 -2 1293 -6 1326 58 12 24 15 80 15 325 l0 295 905 0 905 0
0 -230 0 -230 -671 0 -671 0 -35 -35 c-33 -33 -35 -39 -30 -81 3 -32 13 -55
31 -73 l26 -26 675 -3 675 -2 2 -805 3 -804 28 -29 c16 -17 40 -32 54 -35 40
-8 90 11 113 42 20 29 20 37 20 1240 0 849 -3 1217 -11 1234 -6 13 -23 31 -39
40 -26 16 -111 17 -1004 17 l-976 0 0 208 c0 179 -2 211 -17 232 -34 50 -32
49 -323 50 l-276 0 -16 69 c-55 234 -233 425 -473 507 -108 36 -283 43 -394
15z m294 -216 c176 -46 314 -185 359 -361 9 -34 16 -81 16 -105 0 -61 29 -105
77 -118 22 -6 143 -11 286 -11 l247 0 0 -475 0 -475 -1105 0 -1105 0 0 475 0
475 250 0 c333 0 344 5 360 151 19 186 112 326 271 405 108 54 230 68 344 39z"/>
<path d="M8486 10505 c-98 -35 -166 -133 -166 -239 0 -138 94 -241 230 -253
106 -10 202 42 249 136 61 119 22 221 -84 221 -33 0 -35 2 -35 35 0 96 -83
140 -194 100z m124 -229 c0 -48 -62 -63 -68 -17 -4 26 12 41 46 41 17 0 22 -6
22 -24z"/>
<path d="M13179 8676 c-78 -27 -139 -68 -195 -128 -48 -52 -46 -49 -249 -428
-87 -162 -205 -383 -263 -490 -150 -279 -160 -299 -362 -675 -260 -485 -506
-943 -827 -1540 -154 -286 -310 -577 -346 -646 l-67 -126 0 -422 c0 -465 0
-465 62 -497 18 -10 44 -14 62 -11 35 6 719 453 740 483 7 11 84 152 171 314
386 721 665 1243 710 1325 18 33 115 213 215 400 100 187 199 372 220 410 21
39 103 192 183 340 79 149 236 441 349 650 113 210 212 403 221 430 86 250
-56 528 -311 614 -88 30 -224 29 -313 -3z m277 -220 c64 -30 117 -91 139 -162
25 -81 16 -130 -48 -254 l-54 -105 -48 -6 c-90 -10 -137 -106 -84 -173 l21
-26 -163 -303 c-89 -166 -174 -324 -189 -352 -15 -27 -95 -176 -177 -330 -83
-154 -248 -462 -368 -685 -120 -223 -286 -533 -370 -690 -85 -157 -234 -436
-334 -620 l-180 -335 -40 -3 c-59 -5 -101 -47 -101 -101 l0 -42 -172 -113
c-95 -62 -179 -116 -185 -120 -10 -6 -13 36 -13 194 l0 202 83 -45 c99 -53
117 -58 163 -46 40 12 74 58 74 102 0 58 -23 80 -155 151 l-126 68 47 87 c49
91 55 102 589 1096 185 347 384 716 440 820 56 105 171 318 255 475 84 157
165 308 180 335 15 28 80 149 145 270 65 121 121 224 125 228 4 4 54 -17 112
-47 121 -65 160 -70 207 -30 38 31 48 78 28 126 -13 31 -31 44 -124 94 -59 31
-110 58 -112 60 -6 5 99 193 125 223 66 79 208 105 310 57z"/>
<path d="M8359 7618 c-33 -16 -20 1 -344 -428 -147 -195 -269 -357 -271 -359
-2 -3 -185 183 -325 330 -60 63 -85 79 -124 79 -63 0 -104 -45 -105 -113 0
-48 1 -49 117 -170 65 -67 180 -186 258 -264 134 -137 142 -143 180 -143 22 1
50 6 62 13 11 7 94 109 184 227 89 118 237 314 329 435 92 121 172 230 178
242 48 89 -49 193 -139 151z"/>
<path d="M4647 7099 c-103 -24 -197 -102 -244 -204 -24 -51 -28 -72 -28 -145
1 -70 5 -95 27 -142 34 -74 95 -139 163 -174 l55 -29 2 -2165 3 -2165 23 -70
c98 -294 334 -489 636 -527 157 -20 331 18 472 103 164 99 296 279 339 462 21
91 31 285 16 330 -23 69 -94 97 -159 63 -42 -22 -50 -50 -56 -187 -6 -150 -26
-222 -93 -321 -78 -119 -191 -194 -335 -224 -117 -25 -235 -7 -358 56 -67 34
-181 154 -214 224 -60 128 -56 6 -54 2006 l3 1835 70 18 c52 14 94 17 165 14
97 -5 107 -8 303 -86 120 -49 256 -67 382 -53 56 6 109 12 116 14 12 3 14 -70
16 -447 2 -331 6 -456 15 -473 41 -79 173 -62 197 25 7 25 11 299 11 810 l0
773 38 19 c56 29 118 96 149 159 22 45 29 74 31 137 6 132 -47 241 -152 310
-98 66 -88 65 -831 64 -368 -1 -687 -5 -708 -10z m1403 -229 c48 -24 70 -64
70 -124 0 -36 -6 -52 -31 -81 -17 -19 -47 -40 -67 -45 -25 -8 -248 -10 -689
-8 -641 3 -652 3 -680 24 -87 64 -78 188 18 236 31 17 85 18 687 18 634 0 654
-1 692 -20z m-152 -692 l-3 -212 -50 -13 c-147 -38 -274 -24 -441 47 -52 22
-121 47 -152 56 -84 23 -252 28 -339 11 l-73 -14 0 169 0 168 530 0 530 0 -2
-212z"/>
<path d="M8883 6763 c-31 -6 -70 -48 -77 -84 -7 -38 14 -91 45 -113 21 -15
116 -16 1036 -16 706 0 1019 3 1036 11 51 23 71 94 41 150 -31 61 11 59 -1071
58 -543 -1 -998 -4 -1010 -6z"/>
<path d="M8348 5883 c-15 -10 -156 -189 -314 -398 -158 -209 -288 -381 -289
-383 -3 -3 -215 213 -315 321 -60 64 -95 87 -135 87 -63 0 -104 -45 -105 -113
0 -49 0 -49 118 -170 405 -418 393 -407 437 -407 22 1 50 6 62 13 11 7 174
215 362 462 322 426 341 452 341 492 0 85 -95 141 -162 96z"/>
<path d="M8866 5025 c-55 -29 -75 -83 -52 -139 29 -70 -18 -66 784 -66 l724 0
34 34 c39 39 44 77 18 127 -31 60 -16 59 -781 59 -604 0 -702 -2 -727 -15z"/>
<path d="M5980 4523 c-60 -22 -268 -295 -388 -508 -179 -318 -228 -640 -131
-851 127 -276 416 -418 703 -344 108 27 189 74 272 156 58 57 81 89 117 165
54 112 67 169 67 294 0 252 -125 542 -377 875 -159 211 -193 238 -263 213z
m176 -468 c207 -309 283 -563 225 -753 -34 -112 -103 -192 -209 -244 -189 -91
-412 -7 -505 190 -30 63 -32 74 -31 177 0 90 5 126 28 200 51 167 142 338 279
525 l70 94 34 -39 c19 -22 68 -89 109 -150z"/>
<path d="M8348 4152 c-15 -9 -156 -188 -314 -397 -158 -209 -288 -381 -289
-383 -2 -3 -192 189 -317 320 -88 92 -124 106 -188 73 -38 -20 -50 -43 -50
-100 0 -45 1 -47 137 -188 75 -78 191 -197 258 -264 112 -114 124 -123 159
-123 21 0 50 7 64 16 15 9 80 87 144 173 65 86 208 275 319 421 240 316 239
315 239 364 0 30 -7 45 -34 72 -39 39 -84 45 -128 16z"/>
<path d="M11748 3631 l-33 -29 -3 -936 -2 -936 -2551 0 c-1899 0 -2556 -3
-2572 -11 -38 -21 -56 -52 -57 -97 0 -54 12 -77 50 -97 26 -13 332 -15 2656
-15 l2626 0 34 34 34 34 0 1002 c0 718 -3 1007 -11 1023 -33 64 -116 77 -171
28z"/>
<path d="M8875 3300 c-55 -22 -84 -89 -61 -144 30 -71 -52 -66 1079 -66 l1019
0 34 34 c38 38 44 77 19 126 -33 63 24 60 -1072 59 -549 0 -1007 -4 -1018 -9z"/>
<path d="M4988 2301 c-32 -28 -33 -32 -32 -103 1 -184 150 -347 345 -380 83
-13 133 6 156 60 33 78 -13 144 -108 155 -99 12 -164 78 -176 179 -13 108
-111 155 -185 89z"/>
</g>
</svg>
