<?xml version="1.0" standalone="no"?>
<!DOCTYPE svg PUBLIC "-//W3C//DTD SVG 20010904//EN"
 "http://www.w3.org/TR/2001/REC-SVG-20010904/DTD/svg10.dtd">
<svg version="1.0" xmlns="http://www.w3.org/2000/svg"
 width="360.000000pt" height="360.000000pt" viewBox="0 0 360.000000 360.000000"
 preserveAspectRatio="xMidYMid meet">

<g transform="translate(0.000000,360.000000) scale(0.100000,-0.100000)"
fill="#000000" stroke="none">
<path d="M1890 2987 c-170 -39 -325 -202 -375 -397 -25 -97 -17 -259 19 -365
64 -188 213 -378 439 -560 98 -80 329 -235 349 -235 8 0 53 24 100 54 290 182
544 429 643 625 106 212 113 423 18 613 -47 93 -139 185 -230 230 -64 31 -74
33 -173 33 -102 0 -109 -1 -181 -37 -40 -20 -97 -57 -125 -82 l-51 -45 -19 21
c-31 34 -160 115 -212 132 -69 22 -140 27 -202 13z m194 -103 c49 -18 151 -91
193 -138 17 -20 38 -36 47 -36 8 0 30 16 48 36 92 103 240 173 335 160 98 -13
219 -91 274 -178 58 -89 81 -171 81 -279 0 -151 17 -139 -192 -139 -209 0
-189 10 -236 -127 -16 -45 -30 -80 -32 -78 -3 2 -10 142 -18 310 -7 168 -16
315 -19 326 -5 16 -14 19 -38 17 l-32 -3 -57 -225 c-31 -124 -60 -236 -63
-250 -6 -24 -9 -23 -59 35 -75 84 -83 78 -165 -109 -36 -80 -68 -146 -73 -146
-4 0 -8 24 -8 53 0 141 -22 605 -30 625 -11 24 -51 30 -67 10 -6 -7 -36 -118
-68 -246 l-58 -233 -21 20 c-18 17 -38 21 -126 23 l-105 3 -8 60 c-19 148 37
322 135 417 108 105 233 137 362 92z m432 -847 c6 -200 12 -227 47 -227 28 1
41 27 105 211 l68 194 142 3 c78 1 142 0 142 -3 0 -13 -46 -95 -93 -165 -59
-89 -240 -272 -351 -355 -114 -84 -238 -165 -254 -165 -17 0 -173 106 -287
195 -99 77 -257 240 -312 320 -37 55 -93 157 -93 170 0 3 31 5 69 5 l69 0 37
-50 c26 -36 44 -50 60 -50 31 0 37 12 71 153 15 64 31 117 35 117 3 0 9 -93
13 -207 10 -300 15 -352 37 -364 32 -17 52 5 96 103 23 51 63 140 89 198 26
58 50 109 54 113 4 5 29 -19 55 -52 38 -49 54 -61 76 -61 26 0 30 5 48 68 10
37 27 101 37 142 l18 75 8 -85 c4 -47 10 -174 14 -283z"/>
<path d="M1407 1479 c-49 -12 -123 -49 -172 -89 -105 -84 -358 -213 -619 -316
-110 -44 -151 -65 -159 -81 -12 -27 6 -129 35 -189 60 -130 214 -204 421 -204
l100 0 44 41 c57 52 170 105 281 130 122 28 370 35 592 18 296 -23 281 -25
398 53 134 90 388 225 602 321 77 34 148 85 165 116 24 47 20 117 -9 146 -65
65 -287 32 -633 -96 l-82 -30 -38 25 c-45 30 -141 51 -303 66 -217 21 -343 41
-432 71 -91 30 -126 33 -191 18z m176 -104 c95 -31 155 -41 392 -65 235 -23
286 -34 315 -65 26 -28 22 -47 -17 -72 -24 -16 -52 -18 -268 -18 -231 0 -242
-1 -288 -23 -50 -25 -69 -60 -47 -87 17 -21 37 -19 79 8 32 20 48 22 161 21
69 0 172 -2 230 -5 92 -3 111 -1 152 18 58 26 98 67 98 100 0 30 49 53 277
130 250 83 347 96 359 48 12 -47 -12 -63 -294 -203 -152 -76 -322 -166 -377
-201 -173 -111 -172 -110 -238 -101 -32 5 -149 14 -261 20 -413 23 -669 -26
-840 -161 -54 -43 -86 -48 -203 -29 -132 22 -231 92 -258 183 -19 63 -19 87
-1 87 20 0 245 94 391 164 140 67 277 148 364 214 89 67 155 76 274 37z"/>
</g>
</svg>
