<?xml version="1.0" standalone="no"?>
<!DOCTYPE svg PUBLIC "-//W3C//DTD SVG 20010904//EN"
 "http://www.w3.org/TR/2001/REC-SVG-20010904/DTD/svg10.dtd">
<svg version="1.0" xmlns="http://www.w3.org/2000/svg"
 width="512.000000pt" height="512.000000pt" viewBox="0 0 512.000000 512.000000"
 preserveAspectRatio="xMidYMid meet">

<g transform="translate(0.000000,512.000000) scale(0.100000,-0.100000)"
fill="#000000" stroke="none">
<path d="M820 5111 c-71 -22 -137 -77 -173 -145 l-22 -41 -3 -953 -2 -953 24
-24 c30 -30 65 -32 97 -6 l24 19 5 946 5 946 33 32 32 33 563 0 c554 0 563 0
640 -23 275 -79 479 -282 558 -554 16 -56 22 -115 28 -258 8 -212 18 -248 91
-313 70 -64 93 -70 305 -77 176 -6 196 -9 280 -38 216 -73 376 -211 470 -407
76 -157 78 -173 82 -580 4 -349 5 -361 25 -382 29 -31 72 -30 105 3 l25 25 -5
402 c-4 348 -7 418 -25 522 -52 298 -140 540 -282 775 -360 598 -964 980
-1659 1050 -118 11 -1183 12 -1221 1z m1815 -306 c442 -191 793 -523 1010
-955 41 -82 105 -232 105 -247 0 -3 -22 15 -49 40 -69 64 -185 139 -278 177
-118 49 -234 70 -396 70 -231 0 -239 8 -248 255 -4 101 -13 197 -22 237 -39
162 -116 309 -223 427 -57 63 -54 63 101 -4z"/>
<path d="M2116 4050 c-79 -25 -96 -70 -96 -255 l0 -145 -147 0 c-163 0 -198
-9 -237 -63 -19 -26 -21 -42 -21 -201 0 -191 5 -208 68 -246 28 -17 51 -20
185 -20 l152 0 0 -147 c0 -167 10 -201 69 -240 32 -22 44 -23 195 -23 251 0
266 14 266 257 l0 153 153 0 c243 0 257 15 257 266 0 151 -1 163 -23 195 -39
59 -73 69 -239 69 l-148 0 0 153 c0 133 -3 156 -20 184 -37 62 -57 68 -230 70
-85 1 -168 -2 -184 -7z m284 -291 c0 -137 2 -155 22 -190 34 -60 63 -69 237
-69 l151 0 0 -115 0 -115 -147 0 c-163 0 -198 -9 -237 -63 -19 -25 -21 -45
-24 -188 l-3 -159 -115 0 -114 0 0 153 c0 241 -16 257 -257 257 l-153 0 0 115
0 115 158 0 c138 0 161 2 189 20 56 34 63 61 63 235 l0 155 115 0 115 0 0
-151z"/>
<path d="M644 2745 l-24 -24 2 -1263 3 -1263 22 -40 c25 -47 84 -105 133 -131
34 -18 94 -19 1509 -22 963 -1 1486 1 1510 8 25 7 61 6 119 -2 249 -36 476
104 557 345 97 290 -93 605 -397 657 l-67 12 -3 524 c-3 575 0 547 -65 560
-26 5 -37 1 -57 -19 l-26 -26 0 -186 c0 -103 -3 -185 -7 -183 -100 50 -150 70
-196 78 -63 10 -154 0 -211 -24 -34 -14 -124 -16 -811 -16 -722 0 -773 -1
-788 -17 -29 -33 -31 -68 -4 -99 l25 -29 686 -3 c377 -1 686 -4 686 -6 0 -2
-27 -52 -61 -110 l-61 -106 -618 0 c-340 0 -626 -3 -635 -6 -24 -9 -46 -60
-39 -89 13 -51 -3 -50 620 -55 l583 -5 -66 -112 -65 -113 -517 0 c-506 0 -518
0 -536 -20 -25 -28 -23 -76 4 -103 21 -22 24 -22 491 -27 l469 -5 -70 -120
c-38 -66 -77 -144 -85 -173 -33 -113 -13 -252 51 -346 l24 -36 -933 0 -933 0
-34 23 c-18 12 -39 34 -46 47 -10 20 -13 293 -13 1263 l0 1238 -25 24 c-31 32
-69 32 -101 0z m3053 -1141 c58 -21 127 -98 147 -165 32 -106 26 -124 -135
-405 l-123 -213 -30 18 c-17 10 -119 69 -226 131 -107 62 -196 113 -197 114
-5 4 254 437 275 459 77 81 175 101 289 61z m-413 -781 c122 -69 222 -127 224
-129 2 -1 -52 -98 -119 -216 -78 -135 -138 -228 -166 -255 -125 -123 -343 -78
-415 85 -24 53 -25 145 -3 198 19 45 247 444 254 444 2 0 104 -57 225 -127z
m860 9 c55 -26 146 -103 146 -124 0 -4 -17 -8 -39 -8 -55 0 -97 -17 -110 -46
-16 -35 -14 -47 10 -78 19 -25 25 -26 110 -26 l89 0 0 -40 0 -40 -355 0 -355
0 0 40 0 40 125 0 c115 0 126 2 145 22 11 12 20 32 20 46 0 61 -42 82 -162 82
l-79 0 26 34 c37 48 120 103 185 121 78 21 168 13 244 -23z m-574 -603 c13
-19 32 -44 43 -56 l20 -23 -132 0 -133 0 17 26 c9 15 33 54 52 88 70 121 62
116 87 54 13 -30 33 -70 46 -89z m705 58 c-36 -43 -90 -85 -145 -110 -66 -30
-206 -30 -273 1 -58 26 -119 73 -147 113 l-21 29 306 0 307 0 -27 -33z"/>
<path d="M1187 2103 c-19 -5 -47 -52 -47 -78 0 -9 11 -27 25 -40 l24 -25 219
0 c206 0 219 1 240 20 32 30 30 82 -4 109 -25 20 -38 21 -233 20 -113 -1 -214
-3 -224 -6z"/>
<path d="M1863 2098 c-48 -23 -51 -103 -4 -127 21 -12 1556 -16 1586 -5 26 10
46 59 36 87 -23 60 16 57 -826 56 -517 0 -777 -4 -792 -11z"/>
<path d="M1161 1704 c-27 -35 -26 -57 3 -91 l24 -28 222 0 c221 0 222 0 241
24 25 30 24 76 -1 101 -19 19 -33 20 -244 20 l-225 0 -20 -26z"/>
<path d="M1169 1341 c-17 -13 -23 -29 -23 -56 0 -27 6 -43 23 -56 21 -17 43
-19 240 -19 214 0 218 0 239 23 31 33 29 80 -4 106 -25 20 -39 21 -239 21
-193 0 -215 -2 -236 -19z"/>
<path d="M1161 954 c-27 -35 -26 -57 3 -91 l24 -28 222 0 c221 0 222 0 241 24
25 30 24 76 -1 101 -19 19 -33 20 -244 20 l-225 0 -20 -26z"/>
</g>
</svg>
