<?xml version="1.0" standalone="no"?>
<!DOCTYPE svg PUBLIC "-//W3C//DTD SVG 20010904//EN"
 "http://www.w3.org/TR/2001/REC-SVG-20010904/DTD/svg10.dtd">
<svg version="1.0" xmlns="http://www.w3.org/2000/svg"
 width="224.000000pt" height="225.000000pt" viewBox="0 0 224.000000 225.000000"
 preserveAspectRatio="xMidYMid meet">
<metadata>
Created by potrace 1.16, written by Peter Selinger 2001-2019
</metadata>
<g transform="translate(0.000000,225.000000) scale(0.100000,-0.100000)"
fill="#000000" stroke="none">
<path d="M980 2240 c-387 -53 -700 -278 -864 -621 -207 -431 -123 -929 213
-1269 l84 -85 -7 -118 c-5 -84 -3 -123 5 -133 10 -12 125 -14 708 -14 383 0
702 4 710 9 11 7 13 35 9 137 l-5 128 59 54 c238 221 373 584 339 911 -52 492
-401 884 -881 987 -83 18 -286 26 -370 14z m286 -245 c18 -93 30 -173 27 -177
-6 -11 -310 -10 -317 0 -4 7 23 227 39 320 l6 33 107 -3 107 -3 31 -170z
m-329 133 c-3 -13 -11 -67 -18 -120 -7 -54 -15 -101 -18 -105 -3 -5 -33 -19
-66 -32 -231 -92 -398 -273 -475 -516 -30 -94 -38 -272 -17 -371 22 -102 62
-197 119 -284 l50 -75 -32 -75 c-18 -41 -39 -95 -48 -120 -9 -25 -18 -47 -19
-49 -6 -9 -66 56 -124 132 -75 100 -141 234 -176 362 -25 90 -27 116 -27 260
0 140 4 172 26 256 94 348 342 613 683 728 50 17 103 31 119 31 24 0 27 -3 23
-22z m538 -19 c332 -120 580 -403 661 -754 30 -127 25 -349 -9 -479 -45 -166
-158 -368 -264 -468 l-29 -28 -51 126 -52 126 34 47 c45 63 100 181 122 261
24 91 25 301 0 390 -65 241 -242 444 -463 533 l-59 23 -22 115 c-30 157 -31
153 14 144 20 -3 73 -20 118 -36z m-567 -325 c20 -43 66 -54 226 -54 156 0
190 7 222 46 l21 26 69 -36 c181 -92 315 -258 364 -452 49 -190 5 -446 -97
-572 l-18 -23 -84 203 c-46 112 -90 213 -98 226 -11 19 -22 22 -73 22 l-60 0
0 65 c0 56 -4 69 -24 90 -33 33 -66 37 -264 33 l-172 -3 -27 -27 c-23 -23 -28
-38 -31 -92 l-4 -65 -57 -3 -56 -3 -82 -190 c-45 -104 -89 -208 -98 -229 l-16
-39 -26 38 c-74 109 -113 242 -113 391 0 277 143 508 394 634 43 22 82 40 86
40 4 0 12 -11 18 -26z m394 -559 l3 -55 -182 0 -183 0 0 48 c0 27 3 52 7 55 3
4 84 7 179 7 l172 0 4 -55z m289 -460 c75 -179 134 -327 131 -330 -8 -8 -1202
-6 -1202 2 0 4 62 153 138 330 l137 323 330 0 331 0 135 -325z m162 -472 c4
-38 7 -101 7 -140 l0 -73 -640 0 -641 0 6 128 c4 70 8 133 10 140 4 9 138 12
628 12 l624 0 6 -67z"/>
</g>
</svg>
