<?xml version="1.0" standalone="no"?>
<!DOCTYPE svg PUBLIC "-//W3C//DTD SVG 20010904//EN"
 "http://www.w3.org/TR/2001/REC-SVG-20010904/DTD/svg10.dtd">
<svg version="1.0" xmlns="http://www.w3.org/2000/svg"
 width="225.000000pt" height="225.000000pt" viewBox="0 0 225.000000 225.000000"
 preserveAspectRatio="xMidYMid meet">
<metadata>
Created by potrace 1.16, written by Peter Selinger 2001-2019
</metadata>
<g transform="translate(0.000000,225.000000) scale(0.100000,-0.100000)"
fill="#000000" stroke="none">
<path d="M997 2204 c-4 -4 -7 -29 -7 -56 l0 -48 -272 -136 c-246 -122 -279
-142 -335 -197 -35 -34 -63 -68 -63 -77 0 -17 369 -390 386 -390 6 0 19 9 29
20 19 21 19 20 66 -26 51 -50 82 -55 87 -15 3 17 -8 36 -39 67 -40 41 -42 44
-26 62 9 10 17 25 17 33 0 8 -47 61 -105 119 -58 57 -101 107 -97 111 6 6 334
109 346 109 3 0 6 -139 6 -310 l0 -310 -30 0 c-68 0 -135 -51 -147 -112 l-5
-28 -194 0 -194 0 0 34 c0 70 -77 122 -143 97 -50 -19 -67 -64 -67 -173 l0
-98 -93 0 c-59 0 -97 -4 -105 -12 -7 -7 -12 -40 -12 -80 0 -79 9 -88 89 -88
l51 0 2 -327 3 -328 80 0 80 0 3 328 2 327 340 0 340 0 0 -154 0 -153 -42 -7
c-50 -8 -98 -49 -98 -83 0 -19 -5 -23 -30 -23 -19 0 -33 -7 -40 -19 -14 -28
-13 -194 2 -209 9 -9 116 -12 419 -12 362 0 408 2 413 16 3 9 6 57 6 109 0 98
-5 110 -50 117 -17 2 -26 10 -28 25 -5 36 -49 71 -98 79 l-44 6 0 154 0 154
270 0 270 0 2 -327 3 -328 80 0 80 0 3 328 2 327 51 0 c80 0 89 9 89 88 0 40
-5 73 -12 80 -8 8 -46 12 -105 12 l-94 0 16 30 c17 34 20 97 4 137 -15 42 -68
92 -109 103 -40 11 -152 13 -201 3 -21 -4 -51 -24 -82 -55 -26 -26 -56 -48
-66 -48 -11 0 -28 15 -39 34 -27 45 -62 67 -117 74 l-45 5 0 308 c0 170 3 309
6 309 14 0 339 -103 346 -109 4 -4 -39 -54 -97 -111 -58 -58 -105 -111 -105
-119 0 -8 8 -23 17 -33 16 -18 14 -21 -26 -62 -31 -31 -42 -50 -39 -67 5 -40
36 -35 87 15 47 46 47 47 66 26 10 -11 25 -20 33 -20 25 0 382 361 382 385 0
12 -26 46 -62 82 -57 55 -90 75 -335 197 l-272 136 -3 52 -3 53 -196 3 c-107
1 -198 -1 -202 -4z m340 -284 c2 -204 1 -222 -12 -198 -22 40 -42 47 -130 47
-88 0 -108 -7 -129 -47 -14 -25 -15 -7 -16 194 0 121 3 224 7 228 4 3 68 5
142 4 l136 -3 2 -225z m-347 15 c0 -61 -3 -76 -17 -83 -10 -5 -105 -35 -211
-67 l-193 -59 -26 27 c-15 14 -25 28 -22 31 11 10 445 225 457 225 8 1 12 -20
12 -74z m653 -36 c122 -61 224 -113 226 -115 3 -3 -7 -17 -22 -31 l-26 -27
-193 59 c-106 32 -201 62 -210 67 -15 7 -18 22 -18 83 0 44 4 75 10 75 6 0
110 -50 233 -111z m-1030 -307 l148 -148 -31 -29 -31 -29 -149 149 -150 149
27 28 c15 15 29 28 32 28 4 0 73 -67 154 -148z m1350 120 l27 -28 -150 -149
-149 -149 -31 29 -31 29 148 148 c81 81 150 148 154 148 3 0 17 -13 32 -28z
m-768 -202 c7 0 42 32 79 70 l66 70 0 -245 0 -245 -145 0 -145 0 0 245 0 245
66 -70 c37 -38 72 -70 79 -70z m-861 -426 c12 -5 16 -20 16 -58 0 -29 5 -57
12 -64 17 -17 489 -17 506 0 7 7 12 29 12 50 0 25 7 44 22 58 21 19 34 20 293
20 299 0 302 -1 314 -60 6 -33 9 -35 55 -40 47 -5 48 -5 65 -57 l18 -53 -684
0 -683 0 0 93 c0 107 10 128 54 111z m1623 -14 c57 -34 61 -121 8 -167 -23
-20 -37 -23 -111 -23 -120 0 -164 28 -164 105 0 76 43 104 155 105 62 0 87 -4
112 -20z m223 -280 c0 -20 -7 -20 -1055 -20 -1048 0 -1055 0 -1055 20 0 20 7
20 1055 20 1048 0 1055 0 1055 -20z m-1932 -387 c-3 -274 -4 -298 -20 -301
-17 -3 -18 16 -18 297 0 295 0 301 20 301 20 0 20 -5 18 -297z m1092 142 l0
-155 -145 0 -145 0 0 155 0 155 145 0 145 0 0 -155z m700 -146 c0 -281 -1
-300 -17 -297 -17 3 -18 27 -21 301 -2 292 -2 297 18 297 20 0 20 -6 20 -301z
m-574 -96 c17 -17 11 -18 -130 -21 -81 -1 -211 -1 -288 0 -135 3 -141 4 -124
21 16 15 43 17 271 17 228 0 255 -2 271 -17z m82 -145 l-3 -53 -350 0 -350 0
-3 53 -3 52 356 0 356 0 -3 -52z"/>
</g>
</svg>
